<svg xmlns="http://www.w3.org/2000/svg" xmlns:xlink="http://www.w3.org/1999/xlink" width="500" zoomAndPan="magnify" viewBox="0 0 375 374.999991" height="500" preserveAspectRatio="xMidYMid meet" version="1.0"><rect x="-37.5" width="450" fill="#ffffff" y="-37.499999" height="449.999989" fill-opacity="1"/><rect x="-37.5" width="450" fill="#d6d6d6" y="-37.499999" height="449.999989" fill-opacity="1"/><path fill="#aaaaaa" d="M 236.671875 48.730469 L 186.15625 -1.785156 L 229.335938 -1.785156 L 376.695312 145.570312 L 376.695312 188.753906 L 304.382812 116.4375 L 312.96875 107.84375 L 321.558594 99.246094 L 287.1875 99.246094 Z M 236.671875 48.730469 " fill-opacity="1" fill-rule="nonzero"/><path fill="#aaaaaa" d="M 376.695312 120.417969 L 254.492188 -1.785156 L 300.183594 -1.785156 L 376.695312 74.722656 Z M 376.695312 120.417969 " fill-opacity="1" fill-rule="nonzero"/><path fill="#aaaaaa" d="M 376.695312 52.085938 L 322.824219 -1.785156 L 371.476562 -1.785156 L 374.152344 0.910156 L 376.824219 3.609375 Z M 376.695312 52.085938 " fill-opacity="1" fill-rule="nonzero"/><path fill="#aaaaaa" d="M 376.695312 257.085938 L 270.207031 150.597656 L 280.273438 140.539062 L 290.335938 130.484375 L 376.695312 216.835938 Z M 376.695312 257.085938 " fill-opacity="1" fill-rule="nonzero"/><path fill="#aaaaaa" d="M 376.695312 325.417969 L 236.046875 184.769531 L 254.699219 166.113281 L 315.695312 227.109375 L 376.695312 288.105469 Z M 376.695312 325.417969 " fill-opacity="1" fill-rule="nonzero"/><path fill="#aaaaaa" d="M -1.445312 186.65625 L 70.65625 258.757812 L 53.6875 275.742188 L 87.640625 275.742188 L 188.671875 376.773438 L 145.492188 376.773438 L -1.445312 229.835938 Z M -1.445312 186.65625 " fill-opacity="1" fill-rule="nonzero"/><path fill="#aaaaaa" d="M 119.917969 68.640625 L 49.492188 -1.785156 L 86.800781 -1.785156 L 209.007812 120.421875 L 190.34375 139.070312 Z M 119.917969 68.640625 " fill-opacity="1" fill-rule="nonzero"/><path fill="#aaaaaa" d="M 175.253906 245.558594 C 180.324219 240.484375 184.570312 236.332031 184.6875 236.332031 C 184.804688 236.332031 216.5 267.933594 255.117188 306.554688 L 325.339844 376.773438 L 288.027344 376.773438 L 166.039062 254.78125 Z M 175.253906 245.558594 " fill-opacity="1" fill-rule="nonzero"/><path fill="#aaaaaa" d="M -1.445312 68.644531 L -1.445312 49.988281 L 138.992188 190.425781 L 129.667969 199.753906 L 120.34375 209.085938 L -1.445312 87.300781 Z M -1.445312 68.644531 " fill-opacity="1" fill-rule="nonzero"/><path fill="#aaaaaa" d="M -1.445312 277.835938 L -1.445312 254.988281 L 120.128906 376.5625 L 74.652344 376.78125 L 36.601562 338.734375 L -1.445312 300.6875 Z M -1.445312 277.835938 " fill-opacity="1" fill-rule="nonzero"/><path fill="#aaaaaa" d="M 117.824219 -1.785156 L 158.070312 -1.785156 L 259.101562 99.246094 L 230.304688 99.246094 L 227.390625 102.058594 L 224.480469 104.871094 Z M 117.824219 -1.785156 " fill-opacity="1" fill-rule="nonzero"/><path fill="#aaaaaa" d="M 147.804688 273.007812 L 150.511719 270.277344 L 256.796875 376.5625 L 236.78125 376.671875 L 216.769531 376.78125 L 115.726562 275.742188 L 145.097656 275.742188 Z M 147.804688 273.007812 " fill-opacity="1" fill-rule="nonzero"/><path fill="#aaaaaa" d="M -1.445312 118.320312 L 104.824219 224.59375 L 84.707031 244.71875 L -1.445312 158.570312 Z M -1.445312 118.320312 " fill-opacity="1" fill-rule="nonzero"/><path fill="#aaaaaa" d="M 376.855469 371.636719 L 376.59375 376.773438 L 358.878906 376.773438 L 308.675781 326.570312 C 281.0625 298.960938 258.285156 276.039062 258.285156 275.867188 C 258.285156 275.691406 266.347656 275.742188 275.96875 275.742188 L 293.46875 275.742188 L 376.695312 358.949219 C 376.695312 358.949219 376.898438 370.761719 376.855469 371.636719 Z M 376.855469 371.636719 " fill-opacity="1" fill-rule="nonzero"/><path fill="#aaaaaa" d="M -1.867188 7.125 L -1.867188 -1.785156 L 15.953125 -1.785156 L 116.984375 99.246094 L 81.351562 99.246094 L -1.867188 16.03125 Z M -1.867188 7.125 " fill-opacity="1" fill-rule="nonzero"/><path fill="#aaaaaa" d="M -1.445312 323.324219 L 51.796875 376.5625 L 3.40625 376.78125 L 0.980469 374.378906 L -1.445312 371.980469 Z M -1.445312 323.324219 " fill-opacity="1" fill-rule="nonzero"/></svg>